name analog
datacolumns 19
datarows 66
range 0.1395 0.17200000000000001
endheader
time	ground_force_vx	ground_force_vy	ground_force_vz	ground_force_px	ground_force_py	ground_force_pz	l_ground_force_vx	l_ground_force_vy	l_ground_force_vz	l_ground_force_px	l_ground_force_py	l_ground_force_pz	ground_torque_x	ground_torque_y	ground_torque_z	l_ground_torque_x	l_ground_torque_y	l_ground_torque_z
0.1395	-0.0	-0.0	-0.0	6.637162208557129	-8.24077033996582	-716.9345703125	-0.0	-0.0	-0.0	-34.730445861816406	16.312437057495117	75.8339614868164	-0.0	-0.0	-0.0	-0.0	-0.0	-0.0
0.14	-0.0	-0.0	-0.0	7.309697151184082	-8.006871223449707	-717.337890625	-0.0	-0.0	-0.0	-35.06124496459961	16.145998001098633	75.563232421875	-0.0	-0.0	-0.0	-0.0	-0.0	-0.0
0.1405	-0.0	-0.0	-0.0	7.761314392089844	-7.836146831512451	-718.4490966796875	-0.0	-0.0	-0.0	-34.8957633972168	16.187536239624023	76.12931823730469	-0.0	-0.0	-0.0	-0.0	-0.0	-0.0
0.14100000000000001	-0.0	-0.0	-0.0	7.36345911026001	-8.302437782287598	-723.422119140625	-0.0	-0.0	-0.0	-34.62042999267578	15.993814468383787	75.61683654785156	-0.0	-0.0	-0.0	-0.0	-0.0	-0.0
0.14150000000000001	-0.0	-0.0	-0.0	6.841631412506104	-9.091300964355469	-728.3662109375	-0.0	-0.0	-0.0	-34.94425201416016	16.01459503173828	75.96808624267578	-0.0	-0.0	-0.0	-0.0	-0.0	-0.0
0.14200000000000002	-0.0	-0.0	-0.0	6.505415916442871	-9.996206283569336	-731.4356689453125	-0.0	-0.0	-0.0	-34.75132751464844	16.01459503173828	76.0495376586914	-0.0	-0.0	-0.0	-0.0	-0.0	-0.0
0.14250000000000002	-0.0	-0.0	-0.0	7.740712165832519	-10.531176567077637	-733.1199951171875	-0.0	-0.0	-0.0	-34.97826385498047	16.01459503173828	75.99373626708984	-0.0	-0.0	-0.0	-0.0	-0.0	-0.0
0.14300000000000002	-0.0	-0.0	-0.0	7.630823612213135	-10.195465087890623	-730.078369140625	-0.0	-0.0	-0.0	-34.930397033691406	16.062732696533203	75.5932846069336	-0.0	-0.0	-0.0	-0.0	-0.0	-0.0
0.14350000000000002	-0.0	-0.0	-0.0	7.253268241882324	-9.050008773803713	-730.2683715820312	-0.0	-0.0	-0.0	-34.820167541503906	16.125505447387695	76.01746368408203	-0.0	-0.0	-0.0	-0.0	-0.0	-0.0
0.14400000000000002	-0.0	-0.0	-0.0	6.601577758789063	-7.740056991577148	-728.5029296875	-0.0	-0.0	-0.0	-35.019981384277344	16.12554359436035	75.103759765625	-0.0	-0.0	-0.0	-0.0	-0.0	-0.0
0.1445	-0.0	-0.0	-0.0	4.537234783172607	-5.870116233825684	-724.5362548828125	-0.0	-0.0	-0.0	-35.23161315917969	16.194534301757812	76.36663818359375	-0.0	-0.0	-0.0	-0.0	-0.0	-0.0
0.145	-0.0	-0.0	-0.0	2.5686323642730717	-5.121922016143799	-724.3720703125	-0.0	-0.0	-0.0	-34.936424255371094	16.347623825073242	76.1566162109375	-0.0	-0.0	-0.0	-0.0	-0.0	-0.0
0.1455	-0.0	-0.0	-0.0	0.582871675491333	-4.340606212615967	-720.981201171875	-0.0	-0.0	-0.0	-34.799346923828125	16.104564666748047	76.96281433105469	-0.0	-0.0	-0.0	-0.0	-0.0	-0.0
0.146	-0.0	-0.0	-0.0	-0.939638376235962	-4.005017280578613	-722.1936645507812	-0.0	-0.0	-0.0	-34.799346923828125	16.194534301757812	75.18612670898438	-0.0	-0.0	-0.0	-0.0	-0.0	-0.0
0.1465	-0.0	-0.0	-0.0	-0.8597617745399475	-3.927469968795776	-724.8078002929688	-0.0	-0.0	-0.0	-34.930850982666016	16.062273025512695	76.05311584472656	-0.0	-0.0	-0.0	-0.0	-0.0	-0.0
0.147	-0.0	-0.0	-0.0	-0.8558948040008545	-3.81172251701355	-723.3125	-0.0	-0.0	-0.0	-34.88880157470703	16.21047019958496	76.32186126708984	-0.0	-0.0	-0.0	-0.0	-0.0	-0.0
0.1475	-0.0	-0.0	-0.0	0.5407090187072754	-4.010868072509766	-724.9954833984375	-0.0	-0.0	-0.0	-34.86770248413086	16.2420654296875	76.4049301147461	-0.0	-0.0	-0.0	-0.0	-0.0	-0.0
0.148	-0.0	-0.0	-0.0	1.9679263830184937	-3.9689481258392334	-725.1614379882812	-0.0	-0.0	-0.0	-34.76838302612305	16.331958770751953	76.89706420898438	-0.0	-0.0	-0.0	-0.0	-0.0	-0.0
0.1485	-0.0	-0.0	-0.0	2.109652519226074	-4.042239665985107	-727.36376953125	-0.0	-0.0	-0.0	-34.88399124145508	16.199377059936523	74.40185546875	-0.0	-0.0	-0.0	-0.0	-0.0	-0.0
0.149	-0.0	-0.0	-0.0	1.6428229808807373	-4.252194404602051	-730.3960571289062	-0.0	-0.0	-0.0	-35.00412368774414	16.220544815063477	76.507568359375	-0.0	-0.0	-0.0	-0.0	-0.0	-0.0
0.1495	-0.0	-0.0	-0.0	1.3803144693374634	-5.038313865661621	-733.1821899414062	-0.0	-0.0	-0.0	-34.914554595947266	16.000978469848633	76.1566162109375	-0.0	-0.0	-0.0	-0.0	-0.0	-0.0
0.15	-0.0	-0.0	-0.0	1.049420952796936	-5.436954498291016	-733.0155029296875	-0.0	-0.0	-0.0	-34.799346923828125	16.310319900512695	74.8016586303711	-0.0	-0.0	-0.0	-0.0	-0.0	-0.0
0.1505	-0.0	-0.0	-0.0	1.007097601890564	-6.3797760009765625	-735.692138671875	-0.0	-0.0	-0.0	-35.09327697753906	16.305927276611328	74.73611450195312	-0.0	-0.0	-0.0	-0.0	-0.0	-0.0
0.151	-0.0	-0.0	-0.0	1.0326534509658811	-6.820717811584473	-736.8349609375	-0.0	-0.0	-0.0	-34.773902893066406	16.284503936767578	75.95699310302734	-0.0	-0.0	-0.0	-0.0	-0.0	-0.0
0.1515	-0.0	-0.0	-0.0	0.2932422161102295	-6.6000566482543945	-737.10400390625	-0.0	-0.0	-0.0	-35.13582229614258	16.451061248779297	75.60649871826172	-0.0	-0.0	-0.0	-0.0	-0.0	-0.0
0.152	-0.0	-0.0	-0.0	-0.4715501964092254	-6.892771720886231	-738.1461181640625	-0.0	-0.0	-0.0	-35.11438751220703	16.01459503173828	76.80498504638672	-0.0	-0.0	-0.0	-0.0	-0.0	-0.0
0.1525	-0.0	-0.0	-0.0	-0.9854248762130736	-6.663524150848389	-739.558837890625	-0.0	-0.0	-0.0	-35.1609001159668	16.28824806213379	76.1566162109375	-0.0	-0.0	-0.0	-0.0	-0.0	-0.0
0.153	-0.0	-0.0	-0.0	-1.20634126663208	-6.71005916595459	-741.2561645507812	-0.0	-0.0	-0.0	-35.11064147949219	16.38174057006836	77.39203643798828	-0.0	-0.0	-0.0	-0.0	-0.0	-0.0
0.1535	-0.0	-0.0	-0.0	-2.926454305648804	-7.6826910972595215	-740.6030883789062	-0.0	-0.0	-0.0	-34.641929626464844	16.01459503173828	76.94286346435547	-0.0	-0.0	-0.0	-0.0	-0.0	-0.0
0.154	-0.0	-0.0	-0.0	-4.1073808670043945	-7.957658767700195	-741.9317626953125	-0.0	-0.0	-0.0	-35.135643005371094	16.399463653564453	76.77403259277344	-0.0	-0.0	-0.0	-0.0	-0.0	-0.0
0.1545	-0.0	-0.0	-0.0	-5.716632843017578	-8.046701431274414	-739.8978271484375	-0.0	-0.0	-0.0	-34.910369873046875	16.011384963989258	75.90279388427734	-0.0	-0.0	-0.0	-0.0	-0.0	-0.0
0.155	-0.0	-0.0	-0.0	-7.047630310058594	-7.1947021484375	-740.4485473632812	-0.0	-0.0	-0.0	-35.02146530151367	15.992870330810549	75.72091674804688	-0.0	-0.0	-0.0	-0.0	-0.0	-0.0
0.1555	-0.0	-0.0	-0.0	-8.09996509552002	-7.080937385559082	-741.0565795898438	-0.0	-0.0	-0.0	-34.84262466430664	15.859336853027344	76.95479583740234	-0.0	-0.0	-0.0	-0.0	-0.0	-0.0
0.156	-0.0	-0.0	-0.0	-8.902671813964844	-6.638647079467773	-742.2865600585938	-0.0	-0.0	-0.0	-34.8454475402832	16.107330322265625	75.62479400634766	-0.0	-0.0	-0.0	-0.0	-0.0	-0.0
0.1565	-0.0	-0.0	-0.0	-9.767032623291016	-6.423457145690918	-743.7969970703125	-0.0	-0.0	-0.0	-34.93486022949219	16.22168731689453	74.57213592529297	-0.0	-0.0	-0.0	-0.0	-0.0	-0.0
0.157	-0.0	-0.0	-0.0	-10.870759963989258	-5.833715915679932	-744.7596435546875	-0.0	-0.0	-0.0	-35.18391418457031	16.306367874145508	76.32719421386719	-0.0	-0.0	-0.0	-0.0	-0.0	-0.0
0.1575	-0.0	-0.0	-0.0	-10.54572296142578	-6.374190330505371	-743.59326171875	-0.0	-0.0	-0.0	-34.66163635253906	16.012235641479492	76.507568359375	-0.0	-0.0	-0.0	-0.0	-0.0	-0.0
0.158	-0.0	-0.0	-0.0	-10.215935707092283	-6.390446186065674	-747.6068725585938	-0.0	-0.0	-0.0	-34.845211029052734	15.766606330871582	75.27477264404297	-0.0	-0.0	-0.0	-0.0	-0.0	-0.0
0.1585	-0.0	-0.0	-0.0	-9.642278671264648	-6.371567726135254	-746.0117797851562	-0.0	-0.0	-0.0	-35.20084762573242	16.376609802246094	75.36072540283203	-0.0	-0.0	-0.0	-0.0	-0.0	-0.0
0.159	-0.0	-0.0	-0.0	-9.61302375793457	-6.817295074462891	-744.5985717773438	-0.0	-0.0	-0.0	-34.7755012512207	16.194534301757812	75.8056640625	-0.0	-0.0	-0.0	-0.0	-0.0	-0.0
0.1595	-0.0	-0.0	-0.0	-9.526062965393066	-7.5543694496154785	-746.18310546875	-0.0	-0.0	-0.0	-34.328277587890625	16.152389526367188	75.37620544433594	-0.0	-0.0	-0.0	-0.0	-0.0	-0.0
0.16	-0.0	-0.0	-0.0	-9.27789306640625	-8.13261890411377	-746.5277709960938	-0.0	-0.0	-0.0	-34.88880157470703	16.32687759399414	75.89849853515625	-0.0	-0.0	-0.0	-0.0	-0.0	-0.0
0.1605	-0.0	-0.0	-0.0	-9.23427391052246	-7.910815715789795	-747.681884765625	-0.0	-0.0	-0.0	-35.067718505859375	16.262409210205078	75.3623275756836	-0.0	-0.0	-0.0	-0.0	-0.0	-0.0
0.161	-0.0	-0.0	-0.0	-9.02837371826172	-7.574223518371582	-749.015625	-0.0	-0.0	-0.0	-34.664424896240234	16.240259170532227	74.58021545410156	-0.0	-0.0	-0.0	-0.0	-0.0	-0.0
0.1615	-0.0	-0.0	-0.0	-8.677005767822266	-7.510519027709961	-754.9323120117188	-0.0	-0.0	-0.0	-35.33873748779297	16.306665420532227	75.28182220458984	-0.0	-0.0	-0.0	-0.0	-0.0	-0.0
0.162	-0.0	-0.0	-0.0	-7.941296577453613	-7.890379905700684	-759.6033325195312	-0.0	-0.0	-0.0	-34.866729736328125	16.171161651611328	75.2723617553711	-0.0	-0.0	-0.0	-0.0	-0.0	-0.0
0.1625	-0.0	-0.0	-0.0	-7.269932746887207	-8.690937042236328	-771.622802734375	-0.0	-0.0	-0.0	-35.11191940307617	15.833595275878906	74.67024230957031	-0.0	-0.0	-0.0	-0.0	-0.0	-0.0
0.163	-0.0	-0.0	-0.0	-6.755404472351074	-10.361082077026367	-780.7171630859375	-0.0	-0.0	-0.0	-35.067718505859375	16.149089813232422	75.2810287475586	-0.0	-0.0	-0.0	-0.0	-0.0	-0.0
0.1635	-0.0	-0.0	-0.0	-6.289920330047607	-11.475829124450684	-790.23779296875	-0.0	-0.0	-0.0	-35.02260971069336	15.924625396728516	75.71867370605469	-0.0	-0.0	-0.0	-0.0	-0.0	-0.0
0.164	-0.0	-0.0	-0.0	-5.374680995941162	-11.743182182312012	-798.7184448242188	-0.0	-0.0	-0.0	-34.68767547607422	16.05988883972168	75.89521026611328	-0.0	-0.0	-0.0	-0.0	-0.0	-0.0
0.1645	-0.0	-0.0	-0.0	-4.348337173461914	-11.630167961120604	-803.841064453125	-0.0	-0.0	-0.0	-34.84432601928711	16.059326171875	75.53997039794922	-0.0	-0.0	-0.0	-0.0	-0.0	-0.0
0.165	-0.0	-0.0	-0.0	-3.770456314086914	-12.210865020751951	-806.74755859375	-0.0	-0.0	-0.0	-35.04544448852539	15.924982070922852	74.92619323730469	-0.0	-0.0	-0.0	-0.0	-0.0	-0.0
0.1655	-0.0	-0.0	-0.0	-2.6098568439483643	-12.21026611328125	-811.3419799804688	-0.0	-0.0	-0.0	-34.88880157470703	16.12700653076172	77.47288513183594	-0.0	-0.0	-0.0	-0.0	-0.0	-0.0
0.166	-0.0	-0.0	-0.0	-3.123379230499268	-12.500412940979004	-814.2573852539062	-0.0	-0.0	-0.0	-34.933475494384766	16.194644927978516	75.10332489013672	-0.0	-0.0	-0.0	-0.0	-0.0	-0.0
0.1665	-0.0	-0.0	-0.0	-3.5010688304901123	-12.611774444580078	-815.4059448242188	-0.0	-0.0	-0.0	-34.665218353271484	16.014677047729492	75.9810562133789	-0.0	-0.0	-0.0	-0.0	-0.0	-0.0
0.167	-0.0	-0.0	-0.0	-3.81380033493042	-12.745851516723633	-815.5789794921875	-0.0	-0.0	-0.0	-34.66525650024414	15.924818992614746	76.77059173583984	-0.0	-0.0	-0.0	-0.0	-0.0	-0.0
0.1675	-0.0	-0.0	-0.0	-4.862038612365723	-11.787331581115724	-816.1112060546875	-0.0	-0.0	-0.0	-34.93340301513672	15.969743728637695	76.507568359375	-0.0	-0.0	-0.0	-0.0	-0.0	-0.0
0.168	-0.0	-0.0	-0.0	-6.333927154541016	-11.274986267089844	-814.1680297851562	-0.0	-0.0	-0.0	-34.91168975830078	16.216712951660156	75.6310043334961	-0.0	-0.0	-0.0	-0.0	-0.0	-0.0
0.1685	-0.0	-0.0	-0.0	-7.806004524230957	-9.693058013916016	-809.3128662109375	-0.0	-0.0	-0.0	-34.620994567871094	16.059865951538086	76.68193054199219	-0.0	-0.0	-0.0	-0.0	-0.0	-0.0
0.169	-0.0	-0.0	-0.0	-9.210784912109377	-8.734779357910156	-808.5173950195312	-0.0	-0.0	-0.0	-34.95506286621094	16.173213958740234	74.66703033447266	-0.0	-0.0	-0.0	-0.0	-0.0	-0.0
0.1695	-0.0	-0.0	-0.0	-8.31856632232666	-7.999766826629639	-805.6905517578125	-0.0	-0.0	-0.0	-35.13460922241211	15.81195831298828	75.01522064208984	-0.0	-0.0	-0.0	-0.0	-0.0	-0.0
0.17	-0.0	-0.0	-0.0	-6.379973411560059	-8.200565338134766	-803.3088989257812	-0.0	-0.0	-0.0	-34.82291793823242	16.194534301757812	76.1566162109375	-0.0	-0.0	-0.0	-0.0	-0.0	-0.0
0.1705	-0.0	-0.0	-0.0	-4.239214420318604	-8.579657554626465	-800.5726928710938	-0.0	-0.0	-0.0	-34.84461975097656	16.126237869262695	74.84161376953125	-0.0	-0.0	-0.0	-0.0	-0.0	-0.0
0.171	-0.0	-0.0	-0.0	-2.030158281326294	-9.380355834960938	-802.7779541015625	-0.0	-0.0	-0.0	-34.77667617797852	16.171733856201172	76.8585205078125	-0.0	-0.0	-0.0	-0.0	-0.0	-0.0
0.1715	-0.0	-0.0	-0.0	-0.224490612745285	-9.335190773010254	-805.7781372070312	-0.0	-0.0	-0.0	-34.9555549621582	16.10594940185547	75.7165756225586	-0.0	-0.0	-0.0	-0.0	-0.0	-0.0
0.17200000000000001	-0.0	-0.0	-0.0	1.6046621799468994	-10.227432250976562	-806.7479248046875	-0.0	-0.0	-0.0	-35.0252799987793	16.104564666748047	75.97215270996094	-0.0	-0.0	-0.0	-0.0	-0.0	-0.0
